<?xml version="1.0" encoding="UTF-8"?>
<svg enable-background="new 0 0 741.14 312.63" version="1.1" viewBox="0 0 741.14 312.63" xml:space="preserve" xmlns="http://www.w3.org/2000/svg">
<style type="text/css">
	.st0{fill:#E1E1E1;}
</style>
	<path class="st0" d="m101.37 290.36v1.66h-101.37v-118.8c0-159.51 238.18-159.51 238.18 0v118.8h-101.37v-114.23c0-29.08-35.44-29.08-35.44 0v112.57z"/>
	<path class="st0" d="M243.81,155.14h101.37v136.89H243.81V155.14z"/>
	<path class="st0" d="M351.65,0h101.37v292.02H351.65V0z"/>
	<path class="st0" d="m695.38 172.93v119.09h-98.9v-119.09c0-11.13-9.07-20.6-20.19-20.6-11.54 0-20.6 9.48-20.6 20.6 0 11.13 9.07 20.6 20.6 20.6h14.42v98.49h-14.42c-65.93 0-119.09-53.57-119.09-119.09 0-65.93 53.16-119.09 119.09-119.09 65.52 0 119.09 53.16 119.09 119.09z"/>
	<circle class="st0" cx="294.5" cy="84.67" r="46.14"/>
	<circle class="st0" cx="720.54" cy="292.02" r="20.6"/>
</svg>
